<svg width="24" height="24" viewBox="0 0 24 24" fill="none" xmlns="http://www.w3.org/2000/svg">
<path d="M4.06057 12.3225C3.97981 12.1225 3.97981 11.9025 4.06057 11.7125C4.09085 11.6325 4.15142 11.5625 4.20189 11.5025C4.21199 11.4925 4.22208 11.4725 4.23218 11.4525L8.49212 7.2325C8.80505 6.9225 9.31987 6.9225 9.63281 7.2325C9.94574 7.5425 9.94574 8.0525 9.63281 8.3625L6.75584 11.2125H19.1924C19.6366 11.2225 20 11.5725 20 12.0125C20 12.4525 19.6366 12.8125 19.1924 12.8125H6.75584L9.63281 15.6625C9.94574 15.9725 9.94574 16.4825 9.63281 16.7925C9.47129 16.9525 9.2694 17.0225 9.05741 17.0225C8.84543 17.0225 8.64353 16.9425 8.48202 16.7925L4.22208 12.5725C4.21199 12.5625 4.21199 12.5625 4.21199 12.5525C4.16151 12.4925 4.10095 12.4125 4.06057 12.3225Z" fill="white"/>
</svg>
