<svg width="24" height="24" viewBox="0 0 24 24" fill="none" xmlns="http://www.w3.org/2000/svg">
<path d="M19.79 12.3225C19.87 12.1225 19.87 11.9025 19.79 11.7125C19.76 11.6325 19.7 11.5625 19.65 11.5025C19.64 11.4925 19.63 11.4725 19.62 11.4525L15.4 7.2325C15.09 6.9225 14.58 6.9225 14.27 7.2325C13.96 7.5425 13.96 8.0525 14.27 8.3625L17.12 11.2125H4.8C4.36 11.2225 4 11.5725 4 12.0125C4 12.4525 4.36 12.8125 4.8 12.8125H17.12L14.27 15.6625C13.96 15.9725 13.96 16.4825 14.27 16.7925C14.43 16.9525 14.63 17.0225 14.84 17.0225C15.05 17.0225 15.25 16.9425 15.41 16.7925L19.63 12.5725C19.64 12.5625 19.64 12.5625 19.64 12.5525C19.69 12.4925 19.75 12.4125 19.79 12.3225Z" fill="white"/>
</svg>
