<svg width="24" height="24" viewBox="0 0 24 24" fill="none" xmlns="http://www.w3.org/2000/svg">
<path d="M13.3475 12.1375C13.2475 12.0375 13.2475 11.8775 13.3475 11.7875L20.1875 4.9475C20.5175 4.6175 20.5175 4.0775 20.1875 3.7475C19.8575 3.4175 19.3175 3.4175 18.9875 3.7475L12.1375 10.5875C12.0375 10.6875 11.8775 10.6875 11.7875 10.5875L4.9475 3.7475C4.6175 3.4175 4.0775 3.4175 3.7475 3.7475C3.4175 4.0775 3.4175 4.6175 3.7475 4.9475L10.5875 11.7875C10.6875 11.8875 10.6875 12.0475 10.5875 12.1375L3.7475 18.9775C3.4175 19.3075 3.4175 19.8475 3.7475 20.1775C3.9175 20.3475 4.1275 20.4275 4.3475 20.4275C4.5675 20.4275 4.7875 20.3475 4.9475 20.1775L11.7875 13.3375C11.8875 13.2375 12.0475 13.2375 12.1375 13.3375L18.9775 20.1775C19.1475 20.3475 19.3575 20.4275 19.5775 20.4275C19.7975 20.4275 20.0175 20.3475 20.1775 20.1775C20.5075 19.8475 20.5075 19.3075 20.1775 18.9775L13.3475 12.1375Z" fill="#9E9E9E"/>
</svg>
