<svg width="24" height="24" viewBox="0 0 24 24" fill="none" xmlns="http://www.w3.org/2000/svg">
<path d="M10.6856 14.7905C10.457 14.7905 10.238 14.6858 10.0951 14.5143L7.057 10.8001C6.79033 10.4763 6.83795 10.0001 7.16176 9.7334C7.48557 9.46673 7.97129 9.51435 8.23795 9.83816L10.4951 12.5905C10.5522 12.6572 10.657 12.6572 10.7141 12.581L15.1713 5.63816C15.3999 5.28578 15.8665 5.18102 16.2284 5.40959C16.5808 5.63816 16.6856 6.10482 16.457 6.46673L11.3332 14.4477C11.1999 14.6572 10.9808 14.781 10.7332 14.8001C10.7141 14.7905 10.7046 14.7905 10.6856 14.7905Z" fill="white"/>
</svg>
