<svg width="24" height="24" viewBox="0 0 24 24" fill="none" xmlns="http://www.w3.org/2000/svg">
<path fill-rule="evenodd" clip-rule="evenodd" d="M12 22C17.5228 22 22 17.5228 22 12C22 6.47715 17.5228 2 12 2C6.47715 2 2 6.47715 2 12C2 17.5228 6.47715 22 12 22ZM11.7683 14.5659H12.2423C12.6427 14.5659 12.9693 14.2498 12.9798 13.8495L13.1378 7.26497C13.1484 6.675 12.6743 6.19038 12.0843 6.19038H11.8947C11.3047 6.19038 10.8201 6.68554 10.8412 7.27551L11.0308 13.86C11.0519 14.2498 11.3785 14.5659 11.7683 14.5659ZM12 17.7896C12.6575 17.7896 13.1905 17.2566 13.1905 16.5991C13.1905 15.9417 12.6575 15.4087 12 15.4087C11.3425 15.4087 10.8095 15.9417 10.8095 16.5991C10.8095 17.2566 11.3425 17.7896 12 17.7896Z" fill="white"/>
</svg>
