<svg width="24" height="24" viewBox="0 0 24 24" fill="none" xmlns="http://www.w3.org/2000/svg">
<path fill-rule="evenodd" clip-rule="evenodd" d="M4 9.99C4 5.58 7.58 2.01 12 2C16.42 2.01 20 5.58 20 9.99C20 11.75 19.43 13.36 18.47 14.68C17.57 15.97 14.34 20.09 12.71 21.71C12.51 21.9 12.26 22 12 22C11.74 22 11.49 21.9 11.29 21.7C9.67 20.08 6.43 15.96 5.53 14.67C4.57 13.36 4 11.74 4 9.99ZM15.02 9.99023C15.02 11.6471 13.6769 12.9902 12.02 12.9902C10.3632 12.9902 9.02002 11.6471 9.02002 9.99023C9.02002 8.33338 10.3632 6.99023 12.02 6.99023C13.6769 6.99023 15.02 8.33338 15.02 9.99023Z" fill="white"/>
</svg>
