<svg width="24" height="24" viewBox="0 0 24 24" fill="none" xmlns="http://www.w3.org/2000/svg">
<path d="M13.1268 2.77978L14.8611 7.38497C15.0312 7.8351 15.4528 8.14071 15.933 8.16329L20.8498 8.38911C21.9593 8.44029 22.414 9.83886 21.5469 10.5329L17.7019 13.607C17.3255 13.9081 17.1645 14.4034 17.2924 14.8671L18.5962 19.6123C18.8912 20.6842 17.7004 21.5483 16.773 20.9371L12.6631 18.2303C12.2612 17.9653 11.7403 17.9653 11.3383 18.2303L7.22845 20.9371C6.30108 21.5483 5.11027 20.6842 5.40534 19.6123L6.70906 14.8671C6.83703 14.4034 6.67594 13.9081 6.29958 13.607L2.45464 10.5344C1.58599 9.84037 2.04064 8.4418 3.15167 8.39061L8.06849 8.1648C8.54873 8.14221 8.97026 7.83661 9.14038 7.38647L10.8732 2.77978C11.2646 1.73951 12.7354 1.73951 13.1268 2.77978Z" fill="#8A95E8"/>
</svg>
